<svg height="384pt" viewBox="0 0 384 384" width="384pt" xmlns="http://www.w3.org/2000/svg"><path fill="white" d="m320 128c.003906-3.90625-2.128906-7.5-5.5625-9.363281l-117.332031-64c-3.183594-1.730469-7.027344-1.730469-10.210938 0l-117.332031 64c-3.433594 1.863281-5.566406 5.457031-5.5625 9.363281v128c-.003906 3.90625 2.128906 7.5 5.5625 9.363281l117.332031 64c3.183594 1.738281 7.027344 1.738281 10.210938 0l117.332031-64c3.433594-1.863281 5.566406-5.457031 5.5625-9.363281zm-128-51.855469 95.058594 51.855469-95.058594 51.851562-95.058594-51.851562zm-106.667969 69.824219 96 52.363281v103.703125l-96-52.367187zm117.335938 156.066406v-103.703125l96-52.363281v103.699219zm0 0"/><path fill="white" d="m10.667969 64c2.828125 0 5.542969-1.121094 7.542969-3.121094 2-2.003906 3.125-4.714844 3.121093-7.546875v-32h32c5.890625 0 10.667969-4.773437 10.667969-10.664062s-4.777344-10.667969-10.667969-10.667969h-42.664062c-2.832031 0-5.542969 1.121094-7.546875 3.121094-2 2.003906-3.121094 4.714844-3.121094 7.546875v42.664062c0 2.832031 1.121094 5.542969 3.121094 7.546875 2.003906 2 4.714844 3.121094 7.546875 3.121094zm0 0"/><path fill="white" d="m373.332031 0h-42.664062c-5.890625 0-10.667969 4.777344-10.667969 10.667969s4.777344 10.664062 10.667969 10.664062h32v32c0 5.890625 4.773437 10.667969 10.664062 10.667969s10.667969-4.777344 10.667969-10.667969v-42.664062c0-2.832031-1.121094-5.542969-3.121094-7.546875-2.003906-2-4.714844-3.121094-7.546875-3.121094zm0 0"/><path fill="white" d="m53.332031 362.667969h-32v-32c0-5.890625-4.773437-10.667969-10.664062-10.667969s-10.667969 4.777344-10.667969 10.667969v42.664062c0 2.832031 1.121094 5.542969 3.121094 7.546875 2.003906 2 4.714844 3.121094 7.546875 3.121094h42.664062c5.890625 0 10.667969-4.777344 10.667969-10.667969s-4.777344-10.664062-10.667969-10.664062zm0 0"/><path fill="white" d="m373.332031 320c-2.828125 0-5.542969 1.121094-7.542969 3.121094-2 2.003906-3.125 4.714844-3.121093 7.546875v32h-32c-5.890625 0-10.667969 4.773437-10.667969 10.664062s4.777344 10.667969 10.667969 10.667969h42.664062c2.832031 0 5.542969-1.121094 7.546875-3.121094 2-2.003906 3.121094-4.714844 3.121094-7.546875v-42.664062c0-2.832031-1.121094-5.542969-3.121094-7.546875-2.003906-2-4.714844-3.121094-7.546875-3.121094zm0 0"/></svg>