<svg id="Layer_1" enable-background="new 0 0 100 100" height="512" viewBox="0 0 100 100" width="512" xmlns="http://www.w3.org/2000/svg"><path fill="white" d="m31.03 45.75 18 10c.3.17.64.25.97.25s.67-.08.97-.25l18-10c.64-.35 1.03-1.02 1.03-1.75v-22c0-.73-.39-1.4-1.03-1.75l-18-10c-.6-.34-1.34-.34-1.94 0l-18 10c-.64.35-1.03 1.02-1.03 1.75v22c0 .73.39 1.4 1.03 1.75zm18.97-31.46 15.03 8.35-12.15 7.43c-.47.29-.62.9-.33 1.38.19.31.52.48.85.48.18 0 .36-.05.52-.15l12.08-7.38v18.43l-15 8.33v-14.16c0-.55-.45-1-1-1s-1 .45-1 1v14.16l-15-8.33v-18.43l12.07 7.38c.16.1.34.15.52.15.34 0 .67-.17.85-.48.29-.47.14-1.09-.33-1.38l-12.15-7.43zm-1 18.71c0-.55.45-1 1-1s1 .45 1 1-.45 1-1 1-1-.45-1-1zm37 45h-6v-4c0-2.21-1.79-4-4-4h-52c-2.21 0-4 1.79-4 4v4h-6c-2.21 0-4 1.79-4 4v6c0 1.1.9 2 2 2h76c1.1 0 2-.9 2-2v-6c0-2.21-1.79-4-4-4zm-62-4h52v4h-52zm62 12h-72v-4h72zm-75.74-53.02c-.54-.96-.2-2.18.76-2.72s2.18-.2 2.72.76l18 32c.54.96.2 2.18-.76 2.72-.31.18-.65.26-.98.26-.7 0-1.38-.37-1.75-1.02zm58 30.04 18-32c.54-.96 1.76-1.31 2.72-.76.96.54 1.3 1.76.76 2.72l-18 32c-.36.65-1.04 1.02-1.74 1.02-.33 0-.67-.08-.98-.26-.96-.54-1.3-1.76-.76-2.72z"/></svg>