<svg id="Layer_1" enable-background="new 0 0 66 66" height="512" viewBox="0 0 66 66" width="512" xmlns="http://www.w3.org/2000/svg"><g><path fill="white" d="m41.27 45.92 3.27 2.42 3.8-3.8-2.42-3.27c.96-1.5 1.67-3.18 2.06-4.98l4.02-.6v-5.37l-4.02-.6c-.39-1.8-1.1-3.48-2.06-4.98l2.42-3.27-3.8-3.8-3.27 2.42c-1.5-.96-3.18-1.67-4.98-2.06l-.6-4.03h-5.37l-.6 4.02c-1.8.39-3.48 1.1-4.98 2.06l-3.27-2.42-3.8 3.8 2.42 3.27c-.96 1.5-1.67 3.18-2.06 4.98l-4.03.6v5.37l4.02.6c.39 1.8 1.1 3.48 2.06 4.98l-2.42 3.27 3.8 3.8 3.27-2.42c1.5.96 3.18 1.67 4.98 2.06l.6 4.02h5.37l.6-4.02c1.81-.38 3.49-1.09 4.99-2.05zm-8.27-5.67c-4.01 0-7.25-3.25-7.25-7.25s3.25-7.25 7.25-7.25c4.01 0 7.25 3.25 7.25 7.25s-3.24 7.25-7.25 7.25z"/><path fill="white" d="m33 60c-14.4 0-26.2-11.33-26.96-25.55l1.25 1.25c.2.2.45.3.71.3s.51-.1.71-.29c.39-.39.39-1.02 0-1.41l-3-3c-.39-.39-1.02-.39-1.41 0l-3 3c-.39.39-.39 1.02 0 1.41s1.02.39 1.41 0l1.33-1.33c.72 15.35 13.43 27.62 28.96 27.62.55 0 1-.45 1-1s-.45-1-1-1z"/><path fill="white" d="m64.71 30.29c-.39-.39-1.02-.39-1.41 0l-1.33 1.33c-.73-15.35-13.44-27.62-28.97-27.62-.55 0-1 .45-1 1s.45 1 1 1c14.4 0 26.2 11.33 26.96 25.55l-1.25-1.25c-.39-.39-1.02-.39-1.41 0s-.39 1.02 0 1.41l3 3c.19.19.44.29.7.29s.51-.1.71-.29l3-3c.39-.39.39-1.03 0-1.42z"/><path fill="white" d="m6.25 27.1 2.88-1.85c1.22 1.07 2.67 1.88 4.27 2.33v.81l3.02-.45c.32-1.06.75-2.09 1.27-3.07l-1.38-1.87c-3.27-.05-5.91-2.71-5.91-6 0-3.31 2.69-6 6-6 2.89 0 5.31 2.05 5.87 4.77l2.59 1.92c.81-.43 1.66-.78 2.52-1.07-.03-.98-.19-1.92-.46-2.82l2.79-1.8.08-.05-3.24-5.05-2.88 1.85c-1.22-1.06-2.67-1.87-4.27-2.33v-3.42h-6v3.42c-1.6.45-3.05 1.26-4.27 2.33l-2.88-1.85-3.25 5.05 2.87 1.85c-.3 1.01-.47 2.09-.47 3.2s.17 2.19.48 3.2l-2.88 1.85z"/><path fill="white" d="m59.75 38.9-2.88 1.85c-1.22-1.07-2.67-1.88-4.27-2.33v-.81l-3.02.45c-.32 1.06-.75 2.09-1.27 3.07l1.38 1.87c3.27.05 5.91 2.71 5.91 6 0 3.31-2.69 6-6 6-2.89 0-5.31-2.05-5.87-4.77l-2.59-1.92c-.81.43-1.66.78-2.52 1.07.03.98.19 1.92.46 2.82l-2.79 1.8-.08.05 3.25 5.05 2.88-1.85c1.22 1.07 2.67 1.88 4.27 2.33v3.42h6v-3.42c1.6-.45 3.05-1.26 4.27-2.33l2.88 1.85 3.24-5.05-2.87-1.85c.31-1.01.48-2.09.48-3.2s-.17-2.19-.48-3.2l2.87-1.85z"/></g></svg>