<svg id="solid" enable-background="new 0 0 512 512" height="512" viewBox="0 0 512 512" width="512" xmlns="http://www.w3.org/2000/svg"><path d="m208 512c-2.304 0-4.64-.512-6.784-1.504-5.632-2.624-9.216-8.288-9.216-14.496v-201.12c0-11.072-3.872-21.856-10.88-30.432l-173.888-212.16c-4.64-5.696-7.232-12.928-7.232-20.288 0-17.632 14.368-32 32-32h448c17.632 0 32 14.368 32 32 0 7.36-2.592 14.592-7.264 20.288l-173.888 212.16c-6.976 8.576-10.848 19.36-10.848 30.432v91.168c0 23.808-10.496 46.208-28.8 61.44l-72.96 60.8c-2.912 2.432-6.56 3.712-10.24 3.712z"/></svg>