<?xml version="1.0"?>
<svg xmlns="http://www.w3.org/2000/svg" viewBox="0 0 64 64"><title/><g data-name="Robotic Arm" id="Robotic_Arm"><path d="M57,19a5.991,5.991,0,0,0-10.368-4.1l-11.065-.791a7.485,7.485,0,0,0-13.552,4.1l-9.6,6.984a.953.953,0,0,0-.133.145,7.514,7.514,0,0,0-5.245,6.5A.962.962,0,0,0,7,32V56a1,1,0,0,0,1,1H24a3,3,0,0,0,0-6H22.71L18.46,38.858A7.5,7.5,0,0,0,22,32.5c0-.073-.009-.143-.011-.215L27.822,25.8a7.438,7.438,0,0,0,7.745-2.913L45.9,22.152A6.007,6.007,0,0,0,50,24.91v2.232a3.988,3.988,0,0,0-1.667,6.839,1,1,0,1,0,1.334-1.49,2,2,0,1,1,2.666,0,1,1,0,1,0,1.334,1.49A3.988,3.988,0,0,0,52,27.142V24.91A6.006,6.006,0,0,0,57,19ZM14.5,35A2.5,2.5,0,1,1,17,32.5,2.5,2.5,0,0,1,14.5,35Zm7-5.164a7.516,7.516,0,0,0-5.612-4.7l6.386-4.644a7.524,7.524,0,0,0,3.55,4.542ZM29.5,21A2.5,2.5,0,1,1,32,18.5,2.5,2.5,0,0,1,29.5,21Zm7.132-.19a7.434,7.434,0,0,0,0-4.62l8.785.628A5.953,5.953,0,0,0,45,19a6.038,6.038,0,0,0,.121,1.2ZM49,19a2,2,0,1,1,2,2A2,2,0,0,1,49,19Z"/></g></svg>
