<?xml version="1.0" encoding="iso-8859-1"?>
<!-- Generator: Adobe Illustrator 19.0.0, SVG Export Plug-In . SVG Version: 6.00 Build 0)  -->
<svg version="1.1" id="Capa_1" xmlns="http://www.w3.org/2000/svg" xmlns:xlink="http://www.w3.org/1999/xlink" x="0px" y="0px"
	 viewBox="0 0 512 512" style="enable-background:new 0 0 512 512;" xml:space="preserve">
<g>
	<g>
		<g>
			<circle cx="117.148" cy="452" r="20"/>
			<circle cx="47.148" cy="452" r="20"/>
			<circle cx="337.148" cy="452" r="20"/>
			<circle cx="407.148" cy="452" r="20"/>
			<path d="M248.065,395.768V260.286l236.787-119.999L245.841,0h-37.776v395.13c-23.754,7.992-40.917,30.457-40.917,56.87
				c0,33.084,26.916,60,60,60s60-26.916,60-60C287.148,426.27,270.865,404.277,248.065,395.768z M248.065,47.687l153.38,90.026
				l-153.38,77.729V47.687z M227.148,472c-11.028,0-20-8.972-20-20s8.972-20,20-20s20,8.972,20,20S238.176,472,227.148,472z"/>
		</g>
	</g>
</g>
<g>
</g>
<g>
</g>
<g>
</g>
<g>
</g>
<g>
</g>
<g>
</g>
<g>
</g>
<g>
</g>
<g>
</g>
<g>
</g>
<g>
</g>
<g>
</g>
<g>
</g>
<g>
</g>
<g>
</g>
</svg>
